<svg width="160" height="160" viewBox="0 0 160 160" fill="none" xmlns="http://www.w3.org/2000/svg">
  <rect x="10" y="10" width="140" height="140" rx="36" fill="url(#bg)"/>
  <rect x="18" y="18" width="124" height="124" rx="28" stroke="rgba(255,255,255,0.18)" stroke-width="2"/>
  <path d="M56 46H88V58H70V92C70 108 61 118 43 118H34V106H41C51 106 56 101 56 91V46Z" fill="white"/>
  <path d="M120 76V102C114 112 104 118 91 118C66 118 50 101 50 80C50 59 66 42 91 42C105 42 116 48 122 58L111 65C107 58 100 54 91 54C73 54 62 66 62 80C62 94 73 106 91 106C101 106 109 102 113 95V87H92V76H120Z" fill="#93C5FD"/>
  <defs>
    <linearGradient id="bg" x1="24" y1="20" x2="136" y2="144" gradientUnits="userSpaceOnUse">
      <stop stop-color="#0F172A"/>
      <stop offset="1" stop-color="#2563EB"/>
    </linearGradient>
  </defs>
</svg>
